<svg viewBox="0 0 20 20" version="1.1" xmlns="http://www.w3.org/2000/svg" xmlns:xlink="http://www.w3.org/1999/xlink">
  <path d="M10,8.58578644 L12.5857864,6 C12.9763107,5.60947571 13.6094757,5.60947571 14,6 C14.3905243,6.39052429 14.3905243,7.02368927 14,7.41421356 L11.4142136,10 L14,12.5857864 C14.3905243,12.9763107 14.3905243,13.6094757 14,14 C13.6094757,14.3905243 12.9763107,14.3905243 12.5857864,14 L10,11.4142136 L7.41421356,14 C7.02368927,14.3905243 6.39052429,14.3905243 6,14 C5.60947571,13.6094757 5.60947571,12.9763107 6,12.5857864 L8.58578644,10 L6,7.41421356 C5.60947571,7.02368927 5.60947571,6.39052429 6,6 C6.39052429,5.60947571 7.02368927,5.60947571 7.41421356,6 L10,8.58578644 Z M2,0 L18,0 C19.1045695,-2.02906125e-16 20,0.8954305 20,2 L20,18 C20,19.1045695 19.1045695,20 18,20 L2,20 C0.8954305,20 1.3527075e-16,19.1045695 0,18 L0,2 C-1.3527075e-16,0.8954305 0.8954305,2.02906125e-16 2,0 Z M2,2 L2,18 L18,18 L18,2 L2,2 Z" id="ic_close"></path>
</svg>
