<?xml version="1.0" encoding="UTF-8" standalone="no"?>
<svg width="20px" height="20px" viewBox="0 0 20 20" version="1.1" xmlns="http://www.w3.org/2000/svg" xmlns:xlink="http://www.w3.org/1999/xlink">
    <!-- Generator: Sketch 50.2 (55047) - http://www.bohemiancoding.com/sketch -->
    <title>ic_download</title>
    <desc>Created with Sketch.</desc>
    <defs></defs>
    <g id="Page-1" stroke="none" stroke-width="1" fill="none" fill-rule="evenodd">
        <g id="Artboard-3" fill="#000000">
            <path d="M11,8.59090149 L12.2848387,7.32309537 L13.6796689,8.72059865 L10.7067689,11.7251775 C10.7056319,11.7263267 10.704492,11.7274731 10.7033494,11.7286167 C10.3130008,12.1193166 9.67983588,12.1196014 9.28913598,11.7292528 L6.27777433,8.72059865 L7.7208865,7.32309537 L9,8.58842276 L9,6 C9,5.44771525 9.44771525,5 10,5 C10.5522847,5 11,5.44771525 11,6 L11,8.59090149 Z M2,0 L18,0 C19.1045695,-2.02906125e-16 20,0.8954305 20,2 L20,18 C20,19.1045695 19.1045695,20 18,20 L2,20 C0.8954305,20 1.3527075e-16,19.1045695 0,18 L0,2 C-1.3527075e-16,0.8954305 0.8954305,2.02906125e-16 2,0 Z M2,2 L2,18 L18,18 L18,2 L2,2 Z M15,14 C15,14.5522847 14.5522847,15 14,15 L6,15 C5.44771525,15 5,14.5522847 5,14 C5,13.4477153 5.44771525,13 6,13 L14,13 C14.5522847,13 15,13.4477153 15,14 Z" id="ic_download"></path>
        </g>
    </g>
</svg>