<svg viewBox="0 0 20 20" version="1.1" xmlns="http://www.w3.org/2000/svg" xmlns:xlink="http://www.w3.org/1999/xlink">
  <path d="M12,0 L18,0 C19.1045695,-2.02906125e-16 20,0.8954305 20,2 L20,8 L18,8 L18,2 L12,2 L12,0 Z M8,0 L8,2 L2,2 L2,8 L0,8 L0,2 C-1.3527075e-16,0.8954305 0.8954305,2.02906125e-16 2,0 L8,0 Z M12,20 L12,18 L18,18 L18,12 L20,12 L20,18 C20,19.1045695 19.1045695,20 18,20 L12,20 Z M8,20 L2,20 C0.8954305,20 1.3527075e-16,19.1045695 0,18 L0,12 L2,12 L2,18 L8,18 L8,20 Z" id="ic_expand"></path>
</svg>
